<svg xmlns="http://www.w3.org/2000/svg" viewBox="0 0 48 48" id="instagram">
  <g>
    <path fill="#1c1c1c" d="M16.67,24A7.33,7.33,0,1,1,24,31.33,7.33,7.33,0,0,1,16.67,24Zm-4,0A11.3,11.3,0,1,0,24,12.7,11.3,11.3,0,0,0,12.7,24ZM33.1,12.26a2.64,2.64,0,1,0,2.64-2.64,2.65,2.65,0,0,0-2.64,2.64Zm-18,29.65A12.2,12.2,0,0,1,11,41.15,7.35,7.35,0,0,1,6.85,37a12.34,12.34,0,0,1-.76-4.09C6,30.57,6,29.87,6,24s0-6.57.13-8.89A12.2,12.2,0,0,1,6.85,11,6.81,6.81,0,0,1,8.5,8.5,6.81,6.81,0,0,1,11,6.85a12.2,12.2,0,0,1,4.08-.76C17.43,6,18.13,6,24,6s6.57,0,8.89.13A12.34,12.34,0,0,1,37,6.85,6.9,6.9,0,0,1,39.51,8.5,6.79,6.79,0,0,1,41.15,11a12.2,12.2,0,0,1,.76,4.08c.1,2.32.13,3,.13,8.89s0,6.57-.13,8.89A12.34,12.34,0,0,1,41.15,37,7.3,7.3,0,0,1,37,41.15a12.34,12.34,0,0,1-4.09.76c-2.32.1-3,.13-8.89.13s-6.57,0-8.89-.13ZM14.93,2.13a16.06,16.06,0,0,0-5.34,1A11.15,11.15,0,0,0,3.16,9.59a16.06,16.06,0,0,0-1,5.34C2,17.28,2,18,2,24s0,6.72.13,9.07a16.06,16.06,0,0,0,1,5.34,11.15,11.15,0,0,0,6.43,6.43,16.06,16.06,0,0,0,5.34,1C17.28,46,18,46,24,46s6.72,0,9.07-.13a16.06,16.06,0,0,0,5.34-1,10.73,10.73,0,0,0,3.9-2.53,11,11,0,0,0,2.54-3.9,16.35,16.35,0,0,0,1-5.34C46,30.72,46,30,46,24s0-6.72-.13-9.07a16.35,16.35,0,0,0-1-5.34,11,11,0,0,0-2.54-3.9,10.73,10.73,0,0,0-3.9-2.53,16.06,16.06,0,0,0-5.34-1C30.72,2,30,2,24,2s-6.72,0-9.07.13Z"></path>
  </g>
</svg>
